<?xml version="1.0" encoding="UTF-8" standalone="no"?>
      <!DOCTYPE svg PUBLIC "-//W3C//DTD SVG 20010904//EN"
      "http://www.w3.org/TR/2001/REC-SVG-20010904/DTD/svg10.dtd">
      <svg height="310" width="310" version="1.1" xmlns="http://www.w3.org/2000/svg" xmlns:xlink="http://www.w3.org/1999/xlink" xml:space="preserve">
      <polyline points="187.9179606750063, 214.46576972490323 307.91796067500627, 214.46576972490323 210.83592135001257, 285.0 247.9179606750063, 170.87321804458156 284.99999999999994, 285.0 236.4589803375031, 249.73288486245158 296.45898033750314, 249.73288486245164 247.91796067500627, 285.0 266.4589803375032, 227.9366090222908 284.99999999999994, 285.00000000000006 280.9549150281252, 282.0610737385377 276.9098300562504, 279.1221474770753 272.86474508437567, 276.18322121561295 268.8196601125009, 273.2442949541506 264.77457514062615, 270.3053686926882 264.77457514062615, 270.3053686926882 264.77457514062615, 270.3053686926882 264.77457514062615, 270.3053686926882 264.77457514062615, 270.3053686926882 264.77457514062615, 270.3053686926882 ,236.45898033750314, 249.7328848624516 296.45898033750314, 249.7328848624516 247.91796067500627, 285.0 266.45898033750314, 227.93660902229078 284.99999999999994, 285.0 280.9549150281252, 282.06107373853763 276.9098300562504, 279.12214747707526 272.86474508437567, 276.1832212156129 268.8196601125009, 273.2442949541505 264.77457514062615, 270.30536869268815 167.69253581563248, 199.77113841759132 287.6925358156325, 199.7711384175914 190.61049649063875, 270.3053686926881 227.69253581563257, 156.1785867372697 264.7745751406261, 270.3053686926882 260.72949016875134, 267.36644243122583 256.6844051968766, 264.42751616976346 252.63932022500185, 261.4885899083011 248.59423525312712, 258.5496636468387 244.5491502812524, 255.61073738537635 196.0081306187556, 220.3436222478279 256.00813061875556, 220.343622247828 207.46711095625867, 255.6107373853763 226.00813061875562, 198.54734640766713 244.54915028125237, 255.61073738537638 ,187.9179606750063, 214.46576972490323 307.91796067500627, 214.46576972490323 210.83592135001257, 285.0 247.9179606750063, 170.87321804458156 284.99999999999994, 285.0 280.9549150281252, 282.06107373853763 276.9098300562504, 279.12214747707526 272.86474508437567, 276.1832212156129 268.8196601125009, 273.2442949541505 264.77457514062615, 270.30536869268815 216.23355547812932, 235.03825355513973 276.23355547812935, 235.0382535551398 227.69253581563248, 270.30536869268815 246.23355547812938, 213.24197771497896 264.77457514062615, 270.3053686926882 216.23355547812935, 235.03825355513976 276.23355547812935, 235.03825355513985 227.69253581563245, 270.30536869268815 246.2335554781294, 213.241977714979 264.77457514062615, 270.30536869268826 260.7294901687514, 267.3664424312259 256.68440519687664, 264.4275161697635 252.6393202250019, 261.48858990830115 248.59423525312718, 258.5496636468388 244.54915028125245, 255.6107373853764 196.00813061875567, 220.3436222478279 256.0081306187557, 220.34362224782805 207.46711095625875, 255.61073738537632 226.00813061875533, 198.54734640766702 244.54915028125203, 255.6107373853763 147.467110956258, 185.07650711027995 267.467110956258, 185.0765071102803 170.38507163126462, 255.61073738537743 207.4671109562587, 141.4839554299591 244.54915028125282, 255.6107373853774 240.5040653093781, 252.67181112391503 236.45898033750336, 249.73288486245266 232.41389536562863, 246.7939586009903 228.3688103937539, 243.85503233952792 224.32372542187917, 240.91610607806555 ,236.45898033750314, 249.7328848624516 296.45898033750314, 249.7328848624516 247.91796067500627, 285.0 266.45898033750314, 227.93660902229078 284.99999999999994, 285.0 280.9549150281252, 282.06107373853763 276.9098300562504, 279.12214747707526 272.86474508437567, 276.1832212156129 268.8196601125009, 273.2442949541505 264.77457514062615, 270.30536869268815 216.23355547812932, 235.03825355513973 276.23355547812935, 235.0382535551398 227.69253581563248, 270.30536869268815 246.23355547812938, 213.24197771497896 264.77457514062615, 270.3053686926882 167.69253581563254, 199.7711384175913 287.69253581563254, 199.77113841759146 190.61049649063875, 270.3053686926881 227.69253581563265, 156.17858673726974 264.7745751406261, 270.30536869268826 260.72949016875134, 267.3664424312259 256.6844051968766, 264.4275161697635 252.63932022500185, 261.48858990830115 248.59423525312712, 258.5496636468388 244.5491502812524, 255.6107373853764 147.46711095625886, 185.07650711027944 267.46711095625886, 185.0765071102797 170.38507163126502, 255.61073738537624 207.46711095625818, 141.48395542995763 244.54915028125157, 255.61073738537618 240.5040653093768, 252.67181112391384 236.45898033750206, 249.7328848624515 232.4138953656273, 246.79395860098916 228.36881039375254, 243.85503233952682 224.32372542187778, 240.91610607806447 175.78270575938078, 205.64899094051628 235.78270575938078, 205.64899094051646 187.24168609688408, 240.91610607806504 205.78270575938112, 183.85271510035588 224.32372542187818, 240.916106078065 127.24168609688473, 170.3818758029679 247.24168609688473, 170.3818758029675 150.15964677189078, 240.9161060780639 187.2416860968841, 126.78932412264535 224.32372542187733, 240.91610607806393 220.27864045000257, 237.9771798166016 216.2335554781278, 235.03825355513925 212.18847050625305, 232.0993272936769 208.1433855343783, 229.16040103221457 204.09830056250354, 226.22147477075222 155.5572809000066, 190.95435963320398 215.5572809000066, 190.95435963320423 167.01626123750984, 226.22147477075274 185.55728090000696, 169.1580837930436 204.09830056250394, 226.22147477075276 200.05321559062918, 223.28254850929042 196.00813061875442, 220.34362224782808 191.96304564687966, 217.40469598636574 187.9179606750049, 214.4657697249034 183.87287570313015, 211.52684346344105 135.331856040633, 176.25972832589312 195.331856040633, 176.259728325893 146.79083637813596, 211.52684346344114 165.3318560406335, 154.46345248573215 183.87287570313086, 211.5268434634412 ,187.9179606750063, 214.46576972490323 307.91796067500627, 214.46576972490323 210.83592135001257, 285.0 247.9179606750063, 170.87321804458156 284.99999999999994, 285.0 280.9549150281252, 282.06107373853763 276.9098300562504, 279.12214747707526 272.86474508437567, 276.1832212156129 268.8196601125009, 273.2442949541505 264.77457514062615, 270.30536869268815 216.23355547812932, 235.03825355513973 276.23355547812935, 235.0382535551398 227.69253581563248, 270.30536869268815 246.23355547812938, 213.24197771497896 264.77457514062615, 270.3053686926882 167.69253581563254, 199.7711384175913 287.69253581563254, 199.77113841759146 190.61049649063875, 270.3053686926881 227.69253581563265, 156.17858673726974 264.7745751406261, 270.30536869268826 260.72949016875134, 267.3664424312259 256.6844051968766, 264.4275161697635 252.63932022500185, 261.48858990830115 248.59423525312712, 258.5496636468388 244.5491502812524, 255.6107373853764 196.00813061875562, 220.3436222478279 256.0081306187556, 220.34362224782805 207.4671109562587, 255.61073738537632 226.00813061875527, 198.54734640766702 244.54915028125197, 255.6107373853763 240.5040653093772, 252.67181112391395 236.45898033750245, 249.7328848624516 232.4138953656277, 246.79395860098927 228.36881039375294, 243.85503233952693 224.32372542187818, 240.9161060780646 175.78270575938117, 205.6489909405164 235.78270575938117, 205.64899094051657 187.24168609688448, 240.91610607806516 205.7827057593815, 183.852715100356 224.32372542187858, 240.91610607806513 175.78270575938186, 205.64899094051657 235.78270575938186, 205.64899094051637 187.24168609688488, 240.91610607806456 205.78270575938154, 183.85271510035528 224.32372542187815, 240.91610607806456 220.2786404500034, 237.97717981660222 216.23355547812864, 235.03825355513987 212.18847050625388, 232.09932729367753 208.14338553437912, 229.1604010322152 204.09830056250436, 226.22147477075285 155.5572809000074, 190.9543596332046 215.5572809000074, 190.95435963320486 167.01626123751066, 226.22147477075336 185.55728090000778, 169.15808379304423 204.09830056250476, 226.2214747707534 107.01626123751043, 155.68724449565752 227.01626123751043, 155.6872444956573 129.93422191251636, 226.22147477075356 167.0162612375115, 112.0946928153356 204.09830056250615, 226.22147477075373 200.05321559063142, 223.28254850929136 196.0081306187567, 220.343622247829 191.96304564688197, 217.40469598636662 187.91796067500724, 214.46576972490425 183.8728757031325, 211.52684346344188 135.3318560406356, 176.25972832589355 195.3318560406356, 176.2597283258939 146.7908363781383, 211.52684346344165 165.33185604063468, 154.4634524857323 183.87287570313157, 211.52684346344148 179.82779073125684, 208.58791720197908 175.7827057593821, 205.64899094051668 171.73762078750738, 202.71006467905428 167.69253581563265, 199.77113841759189 163.64745084375792, 196.8322121561295 115.1064311812613, 161.5650970185808 175.1064311812613, 161.5650970185816 126.56541151876473, 196.83221215613037 145.10643118126157, 139.76882117842115 163.647450843758, 196.83221215613048 66.56541151876533, 126.29798188103231 186.56541151876533, 126.29798188103149 89.48337219377161, 196.8322121561282 126.56541151876618, 82.70543020071007 163.64745084375818, 196.83221215612906 159.60236587188342, 193.89328589466672 155.55728090000866, 190.95435963320438 151.5121959281339, 188.01543337174203 147.46711095625915, 185.0765071102797 143.4220259843844, 182.13758084881735 94.88100632188733, 146.87046571126928 154.88100632188733, 146.87046571126933 106.33998665939019, 182.13758084881732 124.88100632188792, 125.07418987110839 143.4220259843851, 182.1375808488175 46.33998665939151, 111.60335057372058 166.3399866593915, 111.60335057372163 69.25794733439669, 182.13758084881684 106.3399866593898, 68.01079889339822 143.42202598438325, 182.13758084881673 139.37694101250855, 179.19865458735433 135.33185604063385, 176.25972832589193 131.28677106875915, 173.32080206442953 127.24168609688444, 170.38187580296713 123.19660112500972, 167.44294954150473 ,"  style="fill:white;stroke:rgb(255,0,0);stroke-width:3" /></svg>